<?xml version="1.0" encoding="UTF-8"?>
<svg xmlns="http://www.w3.org/2000/svg" xmlns:xlink="http://www.w3.org/1999/xlink" width="660.79pt" height="141.72pt" viewBox="0 0 660.79 141.72" version="1.1">
<defs>
<clipPath id="clip1">
  <path d="M 109 119 L 124 119 L 124 141.71875 L 109 141.71875 Z M 109 119 "/>
</clipPath>
<clipPath id="clip2">
  <path d="M 160 120 L 177 120 L 177 141.71875 L 160 141.71875 Z M 160 120 "/>
</clipPath>
<clipPath id="clip3">
  <path d="M 229 120 L 245 120 L 245 141.71875 L 229 141.71875 Z M 229 120 "/>
</clipPath>
<clipPath id="clip4">
  <path d="M 271 120 L 287 120 L 287 141.71875 L 271 141.71875 Z M 271 120 "/>
</clipPath>
<clipPath id="clip5">
  <path d="M 298 120 L 316 120 L 316 141.71875 L 298 141.71875 Z M 298 120 "/>
</clipPath>
<clipPath id="clip6">
  <path d="M 327 120 L 342 120 L 342 141.71875 L 327 141.71875 Z M 327 120 "/>
</clipPath>
<clipPath id="clip7">
  <path d="M 415 119 L 430 119 L 430 141.71875 L 415 141.71875 Z M 415 119 "/>
</clipPath>
<clipPath id="clip8">
  <path d="M 439 120 L 455 120 L 455 141.71875 L 439 141.71875 Z M 439 120 "/>
</clipPath>
<clipPath id="clip9">
  <path d="M 465 120 L 483 120 L 483 141.71875 L 465 141.71875 Z M 465 120 "/>
</clipPath>
<clipPath id="clip10">
  <path d="M 544 120 L 559 120 L 559 141.71875 L 544 141.71875 Z M 544 120 "/>
</clipPath>
<clipPath id="clip11">
  <path d="M 645 41 L 660.789063 41 L 660.789063 57 L 645 57 Z M 645 41 "/>
</clipPath>
</defs>
<g id="surface1">
<path style=" stroke:none;fill-rule:nonzero;fill:rgb(76.861572%,62.744141%,1.960754%);fill-opacity:1;" d="M 0.0117188 100.445313 C 1.828125 100.21875 2.507813 99.539063 2.507813 97.839844 L 2.507813 46.714844 C 2.507813 44.785156 2.050781 43.878906 0.0117188 43.085938 L 0.0117188 42.066406 L 17.128906 42.066406 L 17.128906 43.085938 C 15.089844 43.425781 14.183594 44.671875 14.183594 45.804688 C 14.183594 46.148438 14.183594 46.488281 14.296875 46.714844 L 28.578125 83.554688 L 41.957031 46.714844 C 42.070313 46.261719 42.183594 45.582031 42.183594 45.128906 C 42.183594 43.992188 41.503906 43.539063 39.6875 43.085938 L 39.6875 42.066406 L 56.695313 42.066406 L 56.695313 43.085938 C 54.765625 43.765625 54.085938 44.671875 54.085938 46.714844 L 54.085938 97.839844 C 54.085938 99.539063 54.992188 100.335938 56.921875 100.445313 L 56.921875 101.582031 L 43.542969 101.582031 L 43.542969 100.445313 C 45.582031 100.21875 46.265625 99.65625 46.265625 97.839844 L 46.265625 51.929688 L 28.917969 100.789063 L 28.125 100.789063 L 9.875 52.722656 L 9.875 97.839844 C 9.875 99.539063 10.667969 100.21875 12.707031 100.445313 L 12.707031 101.582031 L 0.0117188 101.582031 "/>
<path style=" stroke:none;fill-rule:nonzero;fill:rgb(76.861572%,62.744141%,1.960754%);fill-opacity:1;" d="M 92.175781 81.515625 L 85.148438 60.316406 L 78.34375 81.515625 Z M 63.15625 100.21875 C 65.082031 99.765625 65.988281 98.75 66.667969 96.820313 L 79.25 57.484375 C 79.589844 56.464844 79.707031 55.667969 79.707031 55.441406 C 79.707031 54.761719 79.023438 54.195313 77.664063 54.082031 L 77.664063 52.722656 L 93.195313 52.722656 L 93.195313 54.082031 C 91.949219 54.195313 91.269531 54.761719 91.269531 55.898438 C 91.269531 56.234375 91.382813 56.800781 91.609375 57.484375 L 104.984375 96.820313 C 105.664063 98.75 106.117188 99.882813 108.160156 100.21875 L 108.160156 101.582031 L 95.691406 101.582031 L 95.691406 100.21875 C 97.050781 99.996094 97.503906 99.425781 97.503906 98.40625 C 97.503906 97.953125 97.503906 97.386719 97.277344 96.820313 L 94.328125 87.75 L 76.417969 87.75 L 73.355469 96.820313 C 73.128906 97.5 73.019531 97.953125 73.019531 98.292969 C 73.019531 99.425781 73.808594 99.996094 75.171875 100.21875 L 75.171875 101.582031 L 63.15625 101.582031 "/>
<path style=" stroke:none;fill-rule:nonzero;fill:rgb(76.861572%,62.744141%,1.960754%);fill-opacity:1;" d="M 119.882813 100.21875 C 122.152344 99.539063 122.378906 98.976563 122.378906 96.933594 L 122.378906 78.796875 L 108.320313 56.121094 C 107.527344 54.875 106.847656 54.308594 105.035156 54.082031 L 105.035156 52.722656 L 119.433594 52.722656 L 119.433594 54.082031 C 117.617188 54.195313 116.9375 54.308594 116.9375 55.554688 C 116.9375 55.78125 117.050781 56.121094 117.277344 56.464844 L 126.914063 71.992188 L 136.210938 56.691406 C 136.4375 56.347656 136.546875 56.007813 136.546875 55.554688 C 136.546875 54.535156 135.871094 54.308594 133.828125 54.082031 L 133.828125 52.722656 L 147.769531 52.722656 L 147.769531 54.082031 C 145.730469 54.195313 144.710938 54.761719 143.804688 56.347656 L 130.085938 78.796875 L 130.085938 96.933594 C 130.085938 98.75 130.996094 99.65625 132.921875 100.21875 L 132.921875 101.582031 L 119.882813 101.582031 "/>
<path style=" stroke:none;fill-rule:nonzero;fill:rgb(76.861572%,62.744141%,1.960754%);fill-opacity:1;" d="M 172.875 81.515625 L 165.847656 60.316406 L 159.046875 81.515625 Z M 143.855469 100.21875 C 145.78125 99.765625 146.6875 98.75 147.367188 96.820313 L 159.953125 57.484375 C 160.289063 56.464844 160.40625 55.667969 160.40625 55.441406 C 160.40625 54.761719 159.726563 54.195313 158.363281 54.082031 L 158.363281 52.722656 L 173.894531 52.722656 L 173.894531 54.082031 C 172.648438 54.195313 171.964844 54.761719 171.964844 55.898438 C 171.964844 56.234375 172.082031 56.800781 172.308594 57.484375 L 185.683594 96.820313 C 186.363281 98.75 186.816406 99.882813 188.859375 100.21875 L 188.859375 101.582031 L 176.390625 101.582031 L 176.390625 100.21875 C 177.75 99.996094 178.203125 99.425781 178.203125 98.40625 C 178.203125 97.953125 178.203125 97.386719 177.976563 96.820313 L 175.027344 87.75 L 157.117188 87.75 L 154.058594 96.820313 C 153.828125 97.5 153.714844 97.953125 153.714844 98.292969 C 153.714844 99.425781 154.511719 99.996094 155.871094 100.21875 L 155.871094 101.582031 L 143.855469 101.582031 "/>
<path style=" stroke:none;fill-rule:nonzero;fill:rgb(76.861572%,62.744141%,1.960754%);fill-opacity:1;" d="M 194.640625 100.445313 C 196.453125 100.21875 197.246094 99.425781 197.246094 97.726563 L 197.246094 56.464844 C 197.246094 54.761719 196.339844 53.96875 194.414063 53.855469 L 194.414063 52.722656 L 210.851563 52.722656 L 210.851563 53.855469 C 208.921875 54.195313 208.015625 55.101563 208.015625 56.234375 C 208.015625 56.574219 208.128906 57.03125 208.355469 57.371094 L 225.925781 85.597656 L 225.925781 56.464844 C 225.925781 54.761719 225.019531 54.082031 223.09375 53.855469 L 223.09375 52.722656 L 235.335938 52.722656 L 235.335938 53.855469 C 233.523438 54.082031 232.730469 54.875 232.730469 56.574219 L 232.730469 97.839844 C 232.730469 99.539063 233.636719 100.335938 235.5625 100.445313 L 235.5625 101.582031 L 223.207031 101.582031 L 223.207031 100.445313 C 224.679688 100.21875 225.359375 99.882813 225.359375 98.859375 C 225.359375 98.632813 225.359375 98.40625 225.246094 98.066406 L 204.046875 64.058594 L 204.046875 97.839844 C 204.046875 99.539063 204.839844 100.21875 206.769531 100.445313 L 206.769531 101.582031 L 194.640625 101.582031 "/>
<path style=" stroke:none;fill-rule:evenodd;fill:rgb(76.861572%,62.744141%,1.960754%);fill-opacity:1;" d="M 341.503906 101.78125 C 347.609375 91.09375 351.175781 78.117188 351.175781 63.867188 C 351.175781 28.492188 328.78125 -0.00390625 301.296875 -0.00390625 C 273.816406 -0.00390625 251.425781 28.492188 251.425781 63.867188 C 251.425781 76.339844 254.222656 87.789063 258.804688 97.710938 L 260.328125 97.710938 C 255.238281 87.789063 252.441406 76.339844 252.441406 63.609375 C 252.441406 29.003906 274.328125 1.015625 301.296875 1.015625 C 328.269531 1.015625 350.15625 29.003906 350.15625 63.609375 C 350.15625 77.097656 347.105469 89.3125 341.503906 99.492188 Z M 332.089844 83.714844 L 306.640625 77.097656 L 298.246094 78.371094 L 296.972656 85.496094 L 307.148438 84.476563 L 334.125 90.332031 Z M 304.097656 10.9375 L 311.730469 8.902344 L 316.058594 11.191406 L 324.714844 60.050781 L 306.390625 53.6875 L 302.0625 54.449219 Z M 292.648438 13.734375 L 289.847656 14.246094 L 281.195313 58.015625 L 285.777344 57.25 Z M 287.046875 56.996094 L 301.042969 54.707031 L 303.078125 10.175781 L 293.664063 12.464844 Z M 272.035156 69.972656 L 306.132813 65.140625 L 330.058594 71.5 L 327.511719 62.085938 L 306.390625 54.707031 L 276.105469 60.050781 Z M 288.320313 70.992188 L 293.410156 69.972656 L 293.410156 72.519531 Z M 285.519531 84.988281 L 291.882813 84.222656 L 291.628906 86.003906 L 285.519531 86.511719 Z M 286.796875 79.132813 L 275.597656 80.664063 L 275.597656 72.519531 L 286.796875 70.992188 Z M 305.625 68.445313 L 294.425781 69.972656 L 294.425781 77.863281 L 305.625 76.078125 Z M 306.898438 68.445313 L 328.019531 74.042969 L 328.019531 81.425781 L 306.898438 75.828125 Z M 295.703125 85.496094 L 296.972656 78.625 L 294.171875 78.882813 L 292.648438 85.753906 Z M 284.246094 86.769531 L 286.03125 80.152344 L 283.230469 80.40625 L 281.703125 87.023438 Z M 280.6875 87.273438 L 281.960938 80.664063 L 273.816406 81.933594 L 272.289063 87.789063 Z M 289.847656 98.730469 L 292.140625 87.789063 L 294.9375 87.53125 L 292.898438 98.730469 Z M 278.394531 98.980469 L 280.941406 88.804688 L 283.742188 88.550781 L 281.195313 98.980469 Z M 282.46875 97.199219 L 282.46875 98.980469 L 288.574219 98.980469 L 289.085938 96.949219 Z M 282.976563 94.402344 L 282.976563 96.183594 L 289.339844 95.675781 L 289.59375 93.894531 Z M 283.742188 91.347656 L 283.742188 93.382813 L 289.847656 92.875 L 290.355469 90.839844 Z M 286.03125 82.441406 L 286.03125 84.222656 L 292.140625 83.460938 L 292.648438 81.679688 Z M 286.796875 79.898438 L 286.796875 81.679688 L 292.898438 80.917969 L 293.15625 79.132813 Z M 284.503906 88.550781 L 284.503906 90.078125 L 290.609375 89.570313 L 290.867188 88.042969 Z M 279.921875 88.804688 L 277.378906 99.75 L 293.921875 99.75 L 296.464844 87.273438 L 307.148438 86.511719 L 336.921875 92.363281 L 339.980469 99.238281 C 345.574219 89.3125 348.890625 77.097656 348.890625 63.867188 C 348.890625 30.277344 327.511719 3.050781 301.296875 3.050781 C 275.089844 3.050781 253.714844 30.277344 253.714844 63.867188 C 253.714844 77.351563 257.273438 89.570313 262.875 99.75 L 269.234375 89.570313 "/>
<path style=" stroke:none;fill-rule:nonzero;fill:rgb(76.861572%,62.744141%,1.960754%);fill-opacity:1;" d="M 388.371094 74.8125 C 394.835938 74.8125 398.011719 72.316406 398.011719 67.214844 C 398.011719 61.773438 394.609375 59.394531 387.578125 59.394531 L 378.964844 59.394531 L 378.964844 74.8125 Z M 405.945313 66.875 C 405.945313 75.492188 399.597656 81.160156 389.960938 81.160156 L 378.964844 81.160156 L 378.964844 97.257813 C 378.964844 99.410156 379.414063 99.976563 381.574219 100.542969 L 381.574219 101.902344 L 368.535156 101.902344 L 368.535156 100.542969 C 370.6875 99.976563 371.140625 99.410156 371.140625 97.257813 L 371.140625 57.691406 C 371.140625 55.539063 370.6875 54.972656 368.535156 54.40625 L 368.535156 53.046875 L 389.394531 53.046875 C 399.9375 53.046875 405.945313 58.488281 405.945313 66.875 "/>
<path style=" stroke:none;fill-rule:nonzero;fill:rgb(76.861572%,62.744141%,1.960754%);fill-opacity:1;" d="M 435.964844 81.839844 L 428.933594 60.640625 L 422.132813 81.839844 Z M 406.941406 100.542969 C 408.871094 100.089844 409.777344 99.070313 410.457031 97.144531 L 423.039063 57.808594 C 423.378906 56.785156 423.492188 55.992188 423.492188 55.765625 C 423.492188 55.085938 422.8125 54.519531 421.453125 54.40625 L 421.453125 53.046875 L 436.984375 53.046875 L 436.984375 54.40625 C 435.738281 54.519531 435.054688 55.085938 435.054688 56.21875 C 435.054688 56.558594 435.171875 57.125 435.398438 57.808594 L 448.773438 97.144531 C 449.453125 99.070313 449.910156 100.203125 451.949219 100.542969 L 451.949219 101.902344 L 439.476563 101.902344 L 439.476563 100.542969 C 440.835938 100.316406 441.289063 99.75 441.289063 98.730469 C 441.289063 98.277344 441.289063 97.710938 441.0625 97.144531 L 438.121094 88.074219 L 420.203125 88.074219 L 417.144531 97.144531 C 416.917969 97.820313 416.804688 98.277344 416.804688 98.617188 C 416.804688 99.75 417.601563 100.316406 418.960938 100.542969 L 418.960938 101.902344 L 406.941406 101.902344 "/>
<path style=" stroke:none;fill-rule:nonzero;fill:rgb(76.861572%,62.744141%,1.960754%);fill-opacity:1;" d="M 458.066406 100.542969 C 460.21875 99.976563 460.789063 99.410156 460.789063 97.257813 L 460.789063 57.691406 C 460.789063 55.539063 460.21875 54.972656 458.066406 54.40625 L 458.066406 53.046875 L 471.21875 53.046875 L 471.21875 54.40625 C 469.0625 54.972656 468.609375 55.539063 468.609375 57.691406 L 468.609375 95.101563 L 489.699219 95.101563 C 491.171875 95.101563 491.964844 94.308594 492.1875 92.492188 L 493.550781 92.492188 L 493.550781 104.058594 L 492.1875 104.058594 C 491.851563 102.359375 491.28125 101.902344 489.585938 101.902344 L 458.066406 101.902344 "/>
<path style=" stroke:none;fill-rule:nonzero;fill:rgb(76.861572%,62.744141%,1.960754%);fill-opacity:1;" d="M 526.007813 81.839844 L 518.976563 60.640625 L 512.175781 81.839844 Z M 496.988281 100.542969 C 498.914063 100.089844 499.820313 99.070313 500.503906 97.144531 L 513.085938 57.808594 C 513.421875 56.785156 513.539063 55.992188 513.539063 55.765625 C 513.539063 55.085938 512.859375 54.519531 511.496094 54.40625 L 511.496094 53.046875 L 527.027344 53.046875 L 527.027344 54.40625 C 525.78125 54.519531 525.101563 55.085938 525.101563 56.21875 C 525.101563 56.558594 525.214844 57.125 525.441406 57.808594 L 538.816406 97.144531 C 539.496094 99.070313 539.949219 100.203125 541.992188 100.542969 L 541.992188 101.902344 L 529.519531 101.902344 L 529.519531 100.542969 C 530.882813 100.316406 531.335938 99.75 531.335938 98.730469 C 531.335938 98.277344 531.335938 97.710938 531.105469 97.144531 L 528.160156 88.074219 L 510.25 88.074219 L 507.1875 97.144531 C 506.960938 97.820313 506.847656 98.277344 506.847656 98.617188 C 506.847656 99.75 507.644531 100.316406 509.003906 100.542969 L 509.003906 101.902344 L 496.988281 101.902344 "/>
<path style=" stroke:none;fill-rule:nonzero;fill:rgb(76.861572%,62.744141%,1.960754%);fill-opacity:1;" d="M 587.5625 96.804688 C 586.539063 96.464844 585.746094 96.234375 585.410156 96.234375 C 583.367188 96.234375 579.285156 103.039063 568.746094 103.039063 C 555.59375 103.039063 546.070313 92.382813 546.070313 77.53125 C 546.070313 62.453125 555.820313 51.796875 568.855469 51.796875 C 577.359375 51.796875 582.007813 56.898438 584.617188 56.898438 C 585.070313 56.898438 585.746094 56.671875 586.539063 56.332031 L 587.5625 57.125 L 579.851563 67.214844 L 578.835938 66.421875 C 578.945313 66.082031 578.945313 65.742188 578.945313 65.402344 C 578.945313 62 574.75 58.601563 568.746094 58.601563 C 560.242188 58.601563 554.121094 66.308594 554.121094 77.417969 C 554.121094 88.757813 560.128906 96.234375 568.972656 96.234375 C 575.316406 96.234375 579.738281 91.925781 579.738281 88.757813 C 579.738281 88.414063 579.511719 87.734375 579.171875 86.714844 L 580.304688 85.921875 L 588.578125 96.007813 "/>
<path style=" stroke:none;fill-rule:nonzero;fill:rgb(76.861572%,62.744141%,1.960754%);fill-opacity:1;" d="M 639.027344 92.042969 L 640.273438 92.042969 L 640.273438 104.171875 L 639.027344 104.171875 C 638.800781 102.582031 637.894531 101.902344 636.308594 101.902344 L 597.425781 101.902344 L 597.425781 100.542969 C 599.578125 99.976563 600.03125 99.296875 600.03125 97.257813 L 600.03125 47.035156 C 600.03125 44.996094 599.578125 44.203125 597.425781 43.636719 L 597.425781 42.386719 L 635.855469 42.386719 C 637.441406 42.386719 638.234375 41.59375 638.464844 39.78125 L 639.710938 39.78125 L 639.710938 51.457031 L 638.464844 51.457031 C 638.121094 49.757813 637.441406 49.191406 635.742188 49.191406 L 608.421875 49.191406 L 608.421875 67.441406 L 628.597656 67.441406 C 630.070313 67.441406 630.867188 66.648438 631.09375 64.835938 L 632.453125 64.835938 L 632.453125 76.511719 L 631.09375 76.511719 C 630.753906 74.8125 630.1875 74.246094 628.484375 74.246094 L 608.421875 74.246094 L 608.421875 94.535156 L 636.421875 94.535156 C 638.007813 94.535156 638.800781 93.855469 639.027344 92.042969 "/>
<path style=" stroke:none;fill-rule:nonzero;fill:rgb(76.861572%,62.744141%,1.960754%);fill-opacity:1;" d="M 0 108.441406 L 0 110.871094 L 640.289063 110.871094 L 640.289063 108.402344 Z M 0 108.441406 "/>
<path style=" stroke:none;fill-rule:nonzero;fill:rgb(76.861572%,62.744141%,1.960754%);fill-opacity:1;" d="M 89.761719 138.371094 C 92.339844 138.371094 93.648438 137.199219 93.648438 134.941406 C 93.648438 132.722656 92.230469 131.511719 89.4375 131.511719 L 85.878906 131.511719 L 85.878906 138.371094 Z M 89.148438 129.214844 C 91.976563 129.214844 93.355469 128.355469 93.355469 126.019531 C 93.355469 123.640625 91.976563 122.824219 89.109375 122.824219 L 85.878906 122.824219 L 85.878906 129.214844 Z M 82.355469 140.472656 C 83.046875 140.277344 83.191406 140.085938 83.191406 139.34375 L 83.191406 122.085938 C 83.191406 121.34375 83.046875 121.105469 82.355469 120.914063 L 82.355469 120.484375 L 90.019531 120.484375 C 93.902344 120.484375 96.042969 122.550781 96.042969 125.785156 C 96.042969 127.847656 95.101563 129.253906 93.140625 130.226563 C 95.28125 131.085938 96.40625 132.722656 96.40625 135.054688 C 96.40625 138.605469 94.082031 140.941406 90.234375 140.941406 L 82.355469 140.941406 "/>
<g clip-path="url(#clip1)" clip-rule="nonzero">
<path style=" stroke:none;fill-rule:nonzero;fill:rgb(76.861572%,62.744141%,1.960754%);fill-opacity:1;" d="M 122.621094 137.550781 L 123.019531 137.550781 L 123.019531 141.71875 L 122.621094 141.71875 C 122.546875 141.175781 122.257813 140.941406 121.75 140.941406 L 109.296875 140.941406 L 109.296875 140.472656 C 109.984375 140.277344 110.132813 140.050781 110.132813 139.34375 L 110.132813 122.085938 C 110.132813 121.382813 109.984375 121.105469 109.296875 120.914063 L 109.296875 120.484375 L 121.605469 120.484375 C 122.109375 120.484375 122.367188 120.210938 122.4375 119.589844 L 122.839844 119.589844 L 122.839844 123.601563 L 122.4375 123.601563 C 122.328125 123.015625 122.109375 122.824219 121.566406 122.824219 L 112.816406 122.824219 L 112.816406 129.097656 L 119.28125 129.097656 C 119.753906 129.097656 120.007813 128.820313 120.078125 128.195313 L 120.515625 128.195313 L 120.515625 132.214844 L 120.078125 132.214844 C 119.96875 131.628906 119.789063 131.4375 119.246094 131.4375 L 112.816406 131.4375 L 112.816406 138.410156 L 121.785156 138.410156 C 122.292969 138.410156 122.546875 138.175781 122.621094 137.550781 "/>
</g>
<path style=" stroke:none;fill-rule:nonzero;fill:rgb(76.861572%,62.744141%,1.960754%);fill-opacity:1;" d="M 143.894531 132.5625 L 141.101563 123.214844 L 138.449219 132.5625 Z M 133.003906 140.472656 C 133.621094 140.316406 133.949219 139.96875 134.128906 139.304688 L 139.03125 122.085938 C 139.140625 121.691406 139.175781 121.460938 139.175781 121.382813 C 139.175781 121.144531 138.960938 120.953125 138.523438 120.914063 L 138.523438 120.484375 L 144.003906 120.484375 L 144.003906 120.914063 C 143.605469 120.953125 143.390625 121.105469 143.390625 121.5 C 143.390625 121.578125 143.425781 121.808594 143.496094 122.085938 L 148.726563 139.304688 C 148.941406 140.007813 149.085938 140.355469 149.742188 140.472656 L 149.742188 140.941406 L 145.421875 140.941406 L 145.421875 140.472656 C 145.855469 140.398438 146.039063 140.203125 146.039063 139.847656 C 146.039063 139.691406 146.003906 139.5 145.929688 139.304688 L 144.660156 135.019531 L 137.726563 135.019531 L 136.523438 139.304688 C 136.488281 139.460938 136.414063 139.652344 136.414063 139.8125 C 136.414063 140.203125 136.671875 140.398438 137.105469 140.472656 L 137.105469 140.941406 L 133.003906 140.941406 "/>
<g clip-path="url(#clip2)" clip-rule="nonzero">
<path style=" stroke:none;fill-rule:nonzero;fill:rgb(76.861572%,62.744141%,1.960754%);fill-opacity:1;" d="M 175.085938 138.449219 C 174.644531 138.449219 174.246094 138.957031 173.558594 139.539063 C 172.25 140.710938 170.617188 141.292969 168.730469 141.292969 C 163.828125 141.292969 160.269531 136.929688 160.269531 130.730469 C 160.269531 124.535156 163.828125 120.136719 168.765625 120.136719 C 172.105469 120.136719 173.738281 122.238281 174.683594 122.238281 C 174.828125 122.238281 175.046875 122.199219 175.300781 122.085938 L 175.628906 122.316406 L 173.195313 126.097656 L 172.832031 125.863281 C 172.867188 125.746094 172.867188 125.667969 172.867188 125.550781 C 172.867188 124.222656 170.980469 122.589844 168.730469 122.589844 C 165.496094 122.589844 163.0625 125.863281 163.0625 130.695313 C 163.0625 135.523438 165.496094 138.761719 168.730469 138.761719 C 171.269531 138.761719 173.046875 136.65625 173.046875 135.5625 C 173.046875 135.367188 173.011719 135.175781 172.902344 134.863281 L 173.230469 134.589844 L 176.0625 138.332031 L 175.734375 138.644531 C 175.445313 138.523438 175.265625 138.449219 175.085938 138.449219 "/>
</g>
<path style=" stroke:none;fill-rule:nonzero;fill:rgb(76.861572%,62.744141%,1.960754%);fill-opacity:1;" d="M 192.148438 140.472656 L 192.148438 140.941406 L 187.789063 140.941406 L 187.789063 140.472656 C 188.480469 140.277344 188.625 140.085938 188.625 139.34375 L 188.625 122.085938 C 188.625 121.34375 188.480469 121.105469 187.789063 120.914063 L 187.789063 120.484375 L 192.148438 120.484375 L 192.148438 120.914063 C 191.457031 121.105469 191.3125 121.34375 191.3125 122.085938 L 191.3125 129.214844 L 199.589844 129.214844 L 199.589844 122.085938 C 199.589844 121.34375 199.445313 121.105469 198.753906 120.914063 L 198.753906 120.484375 L 203.109375 120.484375 L 203.109375 120.914063 C 202.421875 121.105469 202.277344 121.34375 202.277344 122.085938 L 202.277344 139.34375 C 202.277344 140.085938 202.421875 140.277344 203.109375 140.472656 L 203.109375 140.941406 L 198.753906 140.941406 L 198.753906 140.472656 C 199.445313 140.277344 199.589844 140.085938 199.589844 139.34375 L 199.589844 131.746094 L 191.3125 131.746094 L 191.3125 139.34375 C 191.3125 140.085938 191.457031 140.277344 192.148438 140.472656 "/>
<g clip-path="url(#clip3)" clip-rule="nonzero">
<path style=" stroke:none;fill-rule:nonzero;fill:rgb(76.861572%,62.744141%,1.960754%);fill-opacity:1;" d="M 236.3125 127.847656 C 237.765625 127.847656 238.964844 126.644531 238.964844 125.203125 C 238.964844 123.757813 237.800781 122.589844 236.3125 122.589844 C 234.859375 122.589844 233.699219 123.757813 233.699219 125.203125 C 233.699219 126.644531 234.859375 127.847656 236.3125 127.847656 M 235.953125 130.695313 C 234.210938 130.695313 232.71875 132.445313 232.71875 134.707031 C 232.71875 136.96875 234.242188 138.722656 235.953125 138.722656 C 237.1875 138.722656 238.601563 137.707031 239.65625 135.644531 C 239.074219 132.292969 237.910156 130.695313 235.953125 130.695313 M 235.621094 141.371094 C 232.425781 141.371094 229.960938 138.449219 229.960938 134.707031 C 229.960938 132.058594 231.304688 130.109375 233.914063 129.058594 C 232.210938 128.238281 231.265625 126.71875 231.265625 124.847656 C 231.265625 122.277344 233.265625 120.136719 236.3125 120.136719 C 239.398438 120.136719 241.394531 122.15625 241.394531 124.8125 C 241.394531 127.109375 239.871094 128.515625 238.453125 129.058594 C 239.800781 129.796875 240.488281 130.65625 240.921875 132.019531 C 242.195313 128.820313 244.121094 127.886719 244.371094 126.757813 L 244.8125 126.757813 L 244.8125 131.976563 L 244.371094 131.976563 C 244.371094 131.589844 244.265625 131.4375 243.976563 131.4375 C 243.464844 131.4375 242.773438 132.644531 241.90625 135.054688 C 242.59375 137.085938 243.394531 138.097656 243.828125 138.097656 C 244.191406 138.097656 244.339844 137.867188 244.371094 137.28125 L 244.8125 137.28125 L 244.8125 141.253906 C 242.921875 141.214844 241.796875 140.164063 240.5625 138.019531 C 239.328125 140.242188 237.691406 141.371094 235.621094 141.371094 "/>
</g>
<g clip-path="url(#clip4)" clip-rule="nonzero">
<path style=" stroke:none;fill-rule:nonzero;fill:rgb(76.861572%,62.744141%,1.960754%);fill-opacity:1;" d="M 279.753906 141.292969 C 274.851563 141.292969 271.292969 136.929688 271.292969 130.730469 C 271.292969 124.535156 274.8125 120.136719 279.789063 120.136719 C 283.128906 120.136719 284.871094 122.238281 285.632813 122.238281 C 285.78125 122.238281 285.925781 122.199219 286.144531 122.085938 L 286.652344 122.316406 L 284.21875 126.097656 L 283.855469 125.863281 C 283.894531 125.746094 283.894531 125.667969 283.894531 125.550781 C 283.894531 124.222656 282.003906 122.589844 279.753906 122.589844 C 276.484375 122.589844 273.980469 125.9375 273.980469 130.695313 C 273.980469 135.488281 276.449219 138.800781 279.933594 138.800781 C 281.460938 138.800781 282.621094 138.253906 283.53125 137.125 L 283.53125 133.34375 L 280.078125 133.34375 C 279.683594 133.34375 279.390625 133.691406 279.28125 134.316406 L 278.882813 134.316406 L 278.882813 130.148438 L 279.28125 130.148438 C 279.355469 130.695313 279.644531 130.925781 280.117188 130.925781 L 286.941406 130.925781 L 286.941406 131.394531 C 286.398438 131.550781 286.144531 131.863281 286.144531 132.40625 L 286.144531 136.808594 L 286.613281 137.242188 C 284.871094 139.929688 282.585938 141.292969 279.753906 141.292969 "/>
</g>
<g clip-path="url(#clip5)" clip-rule="nonzero">
<path style=" stroke:none;fill-rule:nonzero;fill:rgb(76.861572%,62.744141%,1.960754%);fill-opacity:1;" d="M 307.058594 138.761719 C 310.289063 138.761719 312.71875 135.523438 312.71875 130.695313 C 312.71875 125.863281 310.324219 122.589844 307.058594 122.589844 C 303.824219 122.589844 301.394531 125.863281 301.394531 130.695313 C 301.394531 135.523438 303.859375 138.761719 307.058594 138.761719 M 307.058594 120.136719 C 311.957031 120.136719 315.480469 124.535156 315.480469 130.730469 C 315.480469 136.929688 311.957031 141.292969 307.058594 141.292969 C 302.15625 141.292969 298.59375 136.929688 298.59375 130.730469 C 298.59375 124.535156 302.15625 120.136719 307.058594 120.136719 "/>
</g>
<g clip-path="url(#clip6)" clip-rule="nonzero">
<path style=" stroke:none;fill-rule:nonzero;fill:rgb(76.861572%,62.744141%,1.960754%);fill-opacity:1;" d="M 327.96875 140.472656 C 328.691406 140.277344 328.839844 140.085938 328.839844 139.34375 L 328.839844 122.085938 C 328.839844 121.34375 328.691406 121.105469 327.96875 120.914063 L 327.96875 120.484375 L 332.46875 120.484375 L 332.46875 120.914063 C 331.78125 121.070313 331.523438 121.382813 331.523438 122.085938 L 331.523438 138.410156 L 339.804688 138.410156 C 340.3125 138.410156 340.566406 138.175781 340.640625 137.550781 L 341.039063 137.550781 L 341.039063 141.71875 L 340.640625 141.71875 C 340.566406 141.175781 340.3125 140.941406 339.804688 140.941406 L 327.96875 140.941406 "/>
</g>
<path style=" stroke:none;fill-rule:nonzero;fill:rgb(76.861572%,62.744141%,1.960754%);fill-opacity:1;" d="M 352.039063 140.472656 C 352.730469 140.277344 352.875 140.050781 352.875 139.34375 L 352.875 122.085938 C 352.875 121.382813 352.730469 121.105469 352.039063 120.914063 L 352.039063 120.484375 L 363.511719 120.484375 C 364.019531 120.484375 364.234375 120.210938 364.3125 119.589844 L 364.746094 119.589844 L 364.746094 123.679688 L 364.3125 123.679688 C 364.199219 123.09375 363.984375 122.824219 363.476563 122.824219 L 355.492188 122.824219 L 355.492188 129.214844 L 360.898438 129.214844 C 361.261719 129.214844 361.589844 128.859375 361.695313 128.195313 L 362.132813 128.195313 L 362.132813 132.40625 L 361.695313 132.40625 C 361.589844 131.863281 361.335938 131.550781 360.859375 131.550781 L 355.492188 131.550781 L 355.492188 139.34375 C 355.492188 139.96875 355.707031 140.277344 356.355469 140.472656 L 356.355469 140.941406 L 352.039063 140.941406 "/>
<path style=" stroke:none;fill-rule:nonzero;fill:rgb(76.861572%,62.744141%,1.960754%);fill-opacity:1;" d="M 396.789063 129.953125 C 399.257813 129.953125 400.710938 128.589844 400.710938 126.332031 C 400.710938 124.109375 399.328125 122.863281 396.789063 122.863281 L 392.757813 122.863281 L 392.757813 129.953125 Z M 404.484375 140.472656 L 404.484375 140.941406 L 399.839844 140.941406 L 399.839844 140.472656 C 400.308594 140.4375 400.523438 140.242188 400.523438 139.96875 C 400.523438 139.890625 400.492188 139.734375 400.417969 139.617188 L 396.679688 132.214844 L 392.757813 132.214844 L 392.757813 139.34375 C 392.757813 140.085938 392.902344 140.277344 393.589844 140.472656 L 393.589844 140.941406 L 389.234375 140.941406 L 389.234375 140.472656 C 389.925781 140.277344 390.070313 140.085938 390.070313 139.34375 L 390.070313 122.085938 C 390.070313 121.34375 389.925781 121.105469 389.234375 120.914063 L 389.234375 120.484375 L 396.863281 120.484375 C 401.105469 120.484375 403.464844 122.746094 403.464844 126.136719 C 403.464844 128.90625 402.015625 130.964844 399.363281 131.785156 L 403.355469 139.617188 C 403.609375 140.125 403.976563 140.398438 404.484375 140.472656 "/>
<g clip-path="url(#clip7)" clip-rule="nonzero">
<path style=" stroke:none;fill-rule:nonzero;fill:rgb(76.861572%,62.744141%,1.960754%);fill-opacity:1;" d="M 428.808594 137.550781 L 429.210938 137.550781 L 429.210938 141.71875 L 428.808594 141.71875 C 428.738281 141.175781 428.445313 140.941406 427.9375 140.941406 L 415.480469 140.941406 L 415.480469 140.472656 C 416.175781 140.277344 416.320313 140.050781 416.320313 139.34375 L 416.320313 122.085938 C 416.320313 121.382813 416.175781 121.105469 415.480469 120.914063 L 415.480469 120.484375 L 427.792969 120.484375 C 428.300781 120.484375 428.558594 120.210938 428.628906 119.589844 L 429.027344 119.589844 L 429.027344 123.601563 L 428.628906 123.601563 C 428.519531 123.015625 428.300781 122.824219 427.753906 122.824219 L 419.007813 122.824219 L 419.007813 129.097656 L 425.46875 129.097656 C 425.941406 129.097656 426.195313 128.820313 426.265625 128.195313 L 426.703125 128.195313 L 426.703125 132.214844 L 426.265625 132.214844 C 426.160156 131.628906 425.976563 131.4375 425.433594 131.4375 L 419.007813 131.4375 L 419.007813 138.410156 L 427.972656 138.410156 C 428.480469 138.410156 428.738281 138.175781 428.808594 137.550781 "/>
</g>
<g clip-path="url(#clip8)" clip-rule="nonzero">
<path style=" stroke:none;fill-rule:nonzero;fill:rgb(76.861572%,62.744141%,1.960754%);fill-opacity:1;" d="M 442.75 135.488281 C 442.714844 135.644531 442.714844 135.800781 442.714844 135.953125 C 442.714844 137.511719 444.492188 138.761719 447.398438 138.761719 C 449.976563 138.761719 451.539063 137.394531 451.539063 135.414063 C 451.539063 133.148438 450.191406 132.484375 446.925781 131.628906 C 442.714844 130.5 440.390625 129.5625 440.390625 125.785156 C 440.390625 122.589844 442.898438 120.136719 447.105469 120.136719 C 450.519531 120.136719 452.191406 121.613281 452.769531 121.613281 C 453.023438 121.613281 453.242188 121.417969 453.570313 121.105469 L 453.933594 121.34375 L 451.828125 125.472656 L 451.425781 125.238281 C 451.5 125.082031 451.5 124.964844 451.5 124.8125 C 451.5 123.640625 449.757813 122.511719 447.070313 122.511719 C 444.421875 122.511719 442.898438 123.835938 442.898438 125.667969 C 442.898438 127.96875 445.109375 128.164063 448.5625 129.175781 C 452.410156 130.304688 454.152344 131.976563 454.152344 135.097656 C 454.152344 138.875 451.570313 141.292969 447.324219 141.292969 C 443.589844 141.292969 441.625 139.691406 441.117188 139.691406 C 440.894531 139.691406 440.679688 139.847656 440.355469 140.164063 L 439.992188 139.96875 L 442.351563 135.253906 "/>
</g>
<g clip-path="url(#clip9)" clip-rule="nonzero">
<path style=" stroke:none;fill-rule:nonzero;fill:rgb(76.861572%,62.744141%,1.960754%);fill-opacity:1;" d="M 474.226563 138.761719 C 477.460938 138.761719 479.890625 135.523438 479.890625 130.695313 C 479.890625 125.863281 477.496094 122.589844 474.226563 122.589844 C 470.996094 122.589844 468.5625 125.863281 468.5625 130.695313 C 468.5625 135.523438 471.035156 138.761719 474.226563 138.761719 M 474.226563 120.136719 C 479.128906 120.136719 482.652344 124.535156 482.652344 130.730469 C 482.652344 136.929688 479.128906 141.292969 474.226563 141.292969 C 469.328125 141.292969 465.765625 136.929688 465.765625 130.730469 C 465.765625 124.535156 469.328125 120.136719 474.226563 120.136719 "/>
</g>
<path style=" stroke:none;fill-rule:nonzero;fill:rgb(76.861572%,62.744141%,1.960754%);fill-opacity:1;" d="M 502.691406 129.953125 C 505.160156 129.953125 506.613281 128.589844 506.613281 126.332031 C 506.613281 124.109375 505.234375 122.863281 502.691406 122.863281 L 498.664063 122.863281 L 498.664063 129.953125 Z M 510.386719 140.472656 L 510.386719 140.941406 L 505.742188 140.941406 L 505.742188 140.472656 C 506.214844 140.4375 506.433594 140.242188 506.433594 139.96875 C 506.433594 139.890625 506.398438 139.734375 506.324219 139.617188 L 502.582031 132.214844 L 498.664063 132.214844 L 498.664063 139.34375 C 498.664063 140.085938 498.808594 140.277344 499.496094 140.472656 L 499.496094 140.941406 L 495.140625 140.941406 L 495.140625 140.472656 C 495.828125 140.277344 495.976563 140.085938 495.976563 139.34375 L 495.976563 122.085938 C 495.976563 121.34375 495.828125 121.105469 495.140625 120.914063 L 495.140625 120.484375 L 502.765625 120.484375 C 507.011719 120.484375 509.371094 122.746094 509.371094 126.136719 C 509.371094 128.90625 507.917969 130.964844 505.269531 131.785156 L 509.261719 139.617188 C 509.519531 140.125 509.878906 140.398438 510.386719 140.472656 "/>
<path style=" stroke:none;fill-rule:nonzero;fill:rgb(76.861572%,62.744141%,1.960754%);fill-opacity:1;" d="M 524.886719 140.472656 C 525.613281 140.277344 525.757813 140.085938 525.757813 139.34375 L 525.757813 122.941406 L 521.585938 122.941406 C 520.890625 122.941406 520.710938 123.132813 520.53125 123.914063 L 520.09375 123.914063 L 520.09375 119.511719 L 520.53125 119.511719 C 520.710938 120.289063 520.890625 120.484375 521.585938 120.484375 L 532.65625 120.484375 C 533.34375 120.484375 533.5625 120.289063 533.746094 119.511719 L 534.144531 119.511719 L 534.144531 123.914063 L 533.746094 123.914063 C 533.5625 123.132813 533.34375 122.941406 532.65625 122.941406 L 528.480469 122.941406 L 528.480469 139.34375 C 528.480469 140.085938 528.625 140.277344 529.351563 140.472656 L 529.351563 140.941406 L 524.886719 140.941406 "/>
<g clip-path="url(#clip10)" clip-rule="nonzero">
<path style=" stroke:none;fill-rule:nonzero;fill:rgb(76.861572%,62.744141%,1.960754%);fill-opacity:1;" d="M 546.8125 135.488281 C 546.777344 135.644531 546.777344 135.800781 546.777344 135.953125 C 546.777344 137.511719 548.554688 138.761719 551.464844 138.761719 C 554.039063 138.761719 555.601563 137.394531 555.601563 135.414063 C 555.601563 133.148438 554.257813 132.484375 550.992188 131.628906 C 546.777344 130.5 544.453125 129.5625 544.453125 125.785156 C 544.453125 122.589844 546.960938 120.136719 551.171875 120.136719 C 554.585938 120.136719 556.257813 121.613281 556.835938 121.613281 C 557.089844 121.613281 557.308594 121.417969 557.632813 121.105469 L 557.996094 121.34375 L 555.890625 125.472656 L 555.492188 125.238281 C 555.5625 125.082031 555.5625 124.964844 555.5625 124.8125 C 555.5625 123.640625 553.820313 122.511719 551.132813 122.511719 C 548.484375 122.511719 546.960938 123.835938 546.960938 125.667969 C 546.960938 127.96875 549.175781 128.164063 552.625 129.175781 C 556.472656 130.304688 558.214844 131.976563 558.214844 135.097656 C 558.214844 138.875 555.632813 141.292969 551.386719 141.292969 C 547.652344 141.292969 545.6875 139.691406 545.179688 139.691406 C 544.964844 139.691406 544.746094 139.847656 544.417969 140.164063 L 544.054688 139.96875 L 546.414063 135.253906 "/>
</g>
<g clip-path="url(#clip11)" clip-rule="nonzero">
<path style=" stroke:none;fill-rule:nonzero;fill:rgb(76.861572%,62.744141%,1.960754%);fill-opacity:1;" d="M 651.675781 48.585938 L 652.679688 48.585938 C 653.816406 48.585938 654.785156 48.175781 654.785156 47.101563 C 654.785156 46.34375 654.230469 45.582031 652.679688 45.582031 C 652.230469 45.582031 651.917969 45.617188 651.675781 45.652344 Z M 651.675781 53.386719 L 650.296875 53.386719 L 650.296875 44.71875 C 651.019531 44.617188 651.714844 44.511719 652.746094 44.511719 C 654.058594 44.511719 654.925781 44.789063 655.4375 45.167969 C 655.960938 45.550781 656.234375 46.132813 656.234375 46.964844 C 656.234375 48.105469 655.476563 48.796875 654.542969 49.070313 L 654.542969 49.140625 C 655.300781 49.277344 655.820313 49.96875 655.992188 51.246094 C 656.203125 52.59375 656.410156 53.113281 656.546875 53.386719 L 655.09375 53.386719 C 654.886719 53.113281 654.679688 52.316406 654.507813 51.175781 C 654.300781 50.070313 653.75 49.65625 652.644531 49.65625 L 651.675781 49.65625 Z M 653.128906 42.300781 C 649.707031 42.300781 646.914063 45.238281 646.914063 48.863281 C 646.914063 52.558594 649.707031 55.460938 653.164063 55.460938 C 656.617188 55.492188 659.378906 52.558594 659.378906 48.898438 C 659.378906 45.238281 656.617188 42.300781 653.164063 42.300781 Z M 653.164063 41.09375 C 657.410156 41.09375 660.792969 44.546875 660.792969 48.863281 C 660.792969 53.25 657.410156 56.667969 653.128906 56.667969 C 648.878906 56.667969 645.425781 53.25 645.425781 48.863281 C 645.425781 44.546875 648.878906 41.09375 653.128906 41.09375 "/>
</g>
</g>
</svg>
