<svg id="Grupo_9749" data-name="Grupo 9749" xmlns="http://www.w3.org/2000/svg" xmlns:xlink="http://www.w3.org/1999/xlink" width="291" height="171.009" viewBox="0 0 291 171.009">
  <defs>
    <clipPath id="clip-path">
      <rect id="Rect치ngulo_760" data-name="Rect치ngulo 760" width="291" height="171.009" fill="none"/>
    </clipPath>
    <clipPath id="clip-path-2">
      <path id="Trazado_3096" data-name="Trazado 3096" d="M16.411,64.046,144.1,123.581,275.319,64.046,144.1,4.513Z" transform="translate(-16.411 -4.513)" fill="none"/>
    </clipPath>
    <linearGradient id="linear-gradient" x1="-0.061" y1="1.398" x2="-0.058" y2="1.398" gradientUnits="objectBoundingBox">
      <stop offset="0" stop-color="#243267"/>
      <stop offset="0.346" stop-color="#243267"/>
      <stop offset="0.643" stop-color="#0060a7"/>
      <stop offset="1" stop-color="#0060a7"/>
    </linearGradient>
  </defs>
  <g id="Grupo_9744" data-name="Grupo 9744">
    <g id="Grupo_9743" data-name="Grupo 9743" clip-path="url(#clip-path)">
      <path id="Trazado_3082" data-name="Trazado 3082" d="M154.692,168.821c-2.761,0-5.274-2.813-5.274-4.7a1.711,1.711,0,0,1,1.345-1.785c.144,0,.32.242.483.514,1.472,2.57,5.628,4.938,5.628,5.335,0,.308-1.47.633-2.182.633m-6.9-3.155c0,1.51,1.31,4.167,5.36,4.167a7.236,7.236,0,0,0,4.406-1.338,5.451,5.451,0,0,0,2.918,1.338,2.419,2.419,0,0,0,2.224-1.149c0-.172-.106-.2-.251-.2a4.547,4.547,0,0,1-.913.115c-.47,0-2.4-.9-2.4-1.595a7.513,7.513,0,0,0,1.109-3.357c.091-.6.7-.346.7-.741,0-.172-.1-.222-.285-.222-.287,0-.609.071-1.488.071-1.129,0-1.543-.071-1.847-.071-.251,0-.34.1-.34.239,0,.688,2.042-.2,2.042,1.939a2.39,2.39,0,0,1-.7,1.752c-.449,0-6.394-4.822-6.394-7.273a1.14,1.14,0,0,1,1.249-1.269,3.275,3.275,0,0,1,3,2.606c.087.275.178.409.341.409.212,0,.284-.134.266-.307a21.909,21.909,0,0,1-.251-2.64c0-.257-.015-.342-.194-.342-.27,0-.34.255-.59.255a10.026,10.026,0,0,0-2.568-.63,2.776,2.776,0,0,0-3.008,2.674,5.739,5.739,0,0,0,.374,1.662c0,.188-2.759.894-2.759,3.91" transform="translate(-4.434 -4.723)" fill="#262356"/>
      <path id="Trazado_3083" data-name="Trazado 3083" d="M176.091,154.933c0-2.023,1.091-2.023,2.394-2.023,3.556,0,5.533,2.493,5.533,5.8,0,1.988-.216,3.87-5.569,3.87-1.051,0-2.358,0-2.358-.838Zm-4.329,15.605c0,4.244-2.854,3.128-2.854,4.209,0,.674.739.571,1.126.571,1.76,0,3.523-.13,5.423-.13,1.477,0,2.432.13,3.027.13.812,0,1.1-.2,1.1-.5,0-1.214-3.491.169-3.491-3.44v-5.829c0-1.18-.211-1.416,1.657-1.416,1.76,0,2.392.3,3.2,1.785l2.958,5.326c1.091,1.953,2.215,4.076,5,4.076,1.407,0,3.732-.739,3.732-1.785a.483.483,0,0,0-.525-.473c-.354,0-.7.2-1.058.2a1.383,1.383,0,0,1-1.269-.54c-2.534-4.246-5.527-9.13-5.527-9.333,0-.338,1.018-.641,2.04-1.414a5.069,5.069,0,0,0,2.047-4.212c0-1.55-.707-6.229-8.418-6.229-2.359,0-4.749.061-7.111.061-2.224,0-2.5-.061-4.124-.061-.425,0-.773.093-.773.434,0,1.212,3.839-.035,3.839,3.739Z" transform="translate(-5.038 -4.546)" fill="#262356"/>
      <path id="Trazado_3084" data-name="Trazado 3084" d="M195.686,162.233c0-4.888,1.759-9.534,7.713-9.635,4.542-.073,8.837,3.841,8.837,11.286,0,5.594-1.972,10.111-8.033,10.212-6.3.1-8.518-6.941-8.518-11.863m-4.333,1.923c0,6.839,4.756,11.388,11.83,11.388,11.234,0,13.381-8.255,13.381-12.975,0-7.143-5.244-11.487-12.111-11.422-8.42.067-13.1,5.628-13.1,13.009" transform="translate(-5.741 -4.534)" fill="#262356"/>
      <path id="Trazado_3085" data-name="Trazado 3085" d="M241.441,158.7c.032.332.174,1.109-.423,1.109-.566,0-.81-.706-1.056-1.144-1.761-3.237-4.857-6.168-8.945-6.168-5.179,0-8.026,4.718-8.026,9.236,0,4.75,2.813,11.419,9.542,11.419,5.454,0,7.852-4.411,8.769-4.411.172,0,.49.166.49.369,0,1.346-3.734,6.436-11.23,6.436-10.321,0-11.908-8.625-11.908-11.291,0-5.659,3.631-13.106,12.5-13.106,4.263,0,6.97,2.054,8.034,2.054.665,0,.7-1.11,1.194-1.11.176,0,.423.032.423.2Z" transform="translate(-6.56 -4.534)" fill="#262356"/>
      <path id="Trazado_3086" data-name="Trazado 3086" d="M267.637,170.569c0,4.278,3.665,3.031,3.665,4.345,0,.436-.279.4-.74.4-1.16,0-3.242-.135-4.681-.135-1.273,0-2.643.135-4.438.135-.5,0-.7-.135-.7-.371,0-1.173,2.57-.268,2.57-3.538v-6.062c0-1.419.1-1.791-1.444-1.791h-9.4c-1.617,0-1.727.338-1.727,1.821v5.292c0,4.177,4.365,2.965,4.365,4.177,0,.2.075.471-1.053.471-1.443,0-2.607-.135-5.139-.135-1.481,0-2.958.135-4.721.135-.423,0-.773-.066-.773-.5,0-1.352,2.994-.138,2.994-4.318V155.47c0-3.673-3.982-2.19-3.982-3.472,0-.5,1.054-.465,1.724-.465,1.058,0,2.115.133,3.944.133,2.114,0,3.524-.133,4.544-.133.494,0,.812.1.812.435,0,1.045-2.714.061-2.714,3.066v5.357c0,.906.142,1.349.883,1.349h10.457c1.023,0,1.234-.777,1.234-1.52V155.47c0-3.705-3.875-2.49-3.875-3.472,0-.606.32-.446.808-.446,1.444,0,2.365.136,4.551.136,1.829,0,3.128-.154,4.644-.154.6,0,.738.026.738.334,0,1.277-2.537-.172-2.537,3.132Z" transform="translate(-7.273 -4.546)" fill="#262356"/>
      <path id="Trazado_3087" data-name="Trazado 3087" d="M282.137,165.192c-.633,0-1.127.031-1.127-.3a3.054,3.054,0,0,1,.388-1.249l2.712-5.964c.175-.373.32-.4.385-.4.179,0,.075,0,.285.267l2.886,6.1a3.057,3.057,0,0,1,.389,1.249c0,.332-.5.3-1.128.3Zm5.883,1.82c.913,0,1.088.334,2.254,2.965a5.636,5.636,0,0,1,.631,2.26c0,2.052-2.5,1.682-2.5,2.659,0,.469.459.4,1.09.4,1.023,0,2.331-.134,3.877-.134,2.323,0,3.269.134,4.538.134.954,0,1.271.065,1.271-.5,0-1.116-1.9.2-3.024-2.2l-9.513-20.624c-.458-1.012-.525-1.079-.843-1.079-.463,0-.635.641-.884,1.183l-9.542,20.384c-.879,1.888-2.676,1.686-2.676,2.461,0,.436.565.371,1.056.371,1.024,0,2.041-.134,3.1-.134,1.127,0,2.183.134,3.311.134.739,0,1.826.237,1.826-.47,0-.91-3.795-.372-3.795-2.795a9.336,9.336,0,0,1,.736-2.665c.806-2.224,1.55-2.358,2.149-2.358Z" transform="translate(-8.181 -4.527)" fill="#262356"/>
      <path id="Trazado_3088" data-name="Trazado 3088" d="M.158,168.34c-.106-.468-.455-1.44.421-1.44.557,0,.628.3.765.74,1.118,3.21,3.284,6.246,7.162,6.246,2.726,0,4.819-1.6,4.819-4.277,0-2.841-2.2-3.277-7.82-5.648C2.5,162.693.436,161.386.436,157.875a6.5,6.5,0,0,1,6.883-6.648c2.863,0,4.33,1.3,5.381,1.3.453,0,1.325-.533,1.779-.533.524,0,.419.5.49,1.271l.382,4.478c.073.734-.034,1.138-.8,1.138-.8,0-1.328-6.218-7.336-6.218-2.3,0-3.878,1.269-3.878,3.509s1.924,2.675,6.6,4.644c3.737,1.576,6.045,3.012,6.045,7.254,0,4.379-3.216,7.354-7.791,7.354-2.131,0-3.912-.8-5.936-1.239-.872-.2-.839-.467-1.014-1.267Z" transform="translate(0 -4.537)" fill="#262356"/>
      <path id="Trazado_3089" data-name="Trazado 3089" d="M23.943,165.159c-.627,0-1.117.032-1.117-.3a3.044,3.044,0,0,1,.383-1.237L25.9,157.7c.172-.365.311-.4.382-.4.175,0,.071,0,.279.263l2.865,6.053a3.029,3.029,0,0,1,.383,1.237c0,.334-.49.3-1.116.3Zm5.833,1.805c.907,0,1.084.334,2.234,2.938a5.6,5.6,0,0,1,.63,2.241c0,2.036-2.478,1.671-2.478,2.641,0,.468.451.4,1.083.4,1.01,0,2.3-.133,3.84-.133,2.306,0,3.249.133,4.5.133.945,0,1.262.068,1.262-.5,0-1.1-1.888.2-3.007-2.172l-9.428-20.459c-.455-1-.524-1.069-.838-1.069-.455,0-.63.636-.874,1.172l-9.465,20.222c-.874,1.869-2.655,1.671-2.655,2.439,0,.436.559.368,1.049.368,1.012,0,2.025-.133,3.074-.133,1.117,0,2.167.133,3.284.133.732,0,1.815.235,1.815-.47,0-.9-3.772-.364-3.772-2.77a9.267,9.267,0,0,1,.731-2.64c.805-2.206,1.539-2.34,2.134-2.34Z" transform="translate(-0.437 -4.529)" fill="#262356"/>
      <path id="Trazado_3090" data-name="Trazado 3090" d="M49.245,170.22c0,2.073-.14,3.277,2.376,3.277,8.662,0,8.174-4.378,9.5-4.378.14,0,.384.1.384.732,0,2.61-2.06,5.349-4.926,5.349-5.309,0-7.4-.133-9.151-.133-1.083,0-2.55.133-4.471.133-.455,0-.665-.164-.665-.368,0-1.538,2.657.267,2.657-3.809V155.214c0-2.843-3.946-1.939-3.946-3.109,0-.3.382-.57,1.118-.57,1.395,0,3.422.134,4.748.134,2.97,0,3.387-.134,3.946-.134.734,0,.909.035.909.436,0,1.269-2.481.034-2.481,2.575Z" transform="translate(-1.23 -4.546)" fill="#262356"/>
      <path id="Trazado_3091" data-name="Trazado 3091" d="M68.544,171.056c0,4.112,3.912,2.574,3.912,3.644,0,.367-.311.5-1.115.5-1.293,0-2.584-.136-5.312-.136-1.5,0-3,.136-3.91.136a.362.362,0,0,1-.384-.4c0-1.17,2.515-.3,2.515-3.477V155.279c0-3.039-3.95-2.1-3.95-3.276,0-.569.88-.462,1.2-.462,1.362,0,2.72.127,3.941.127,1.258,0,2.515-.131,4.5-.134,1.05,0,1.224.069,1.224.469,0,1.137-2.621-.065-2.621,3.108Z" transform="translate(-1.809 -4.546)" fill="#262356"/>
      <path id="Trazado_3092" data-name="Trazado 3092" d="M76.913,157.952c0-6.417-3.912-4.24-3.912-5.848a.534.534,0,0,1,.593-.566c.664,0,1.292.131,1.956.131.908,0,1.817-.131,3.669-.134,1.115,0,.7.235,1.326.869l14.041,14.742c.455.467.876.866,1.086.866s.277-.4.277-1.235v-11.13c0-3.044-4.264-2.44-4.264-3.543a.519.519,0,0,1,.561-.566c.561,0,1.572.131,3.981.131,2.2,0,3.426-.131,3.739-.134.663,0,.663.335.663.436,0,1-2.97.2-2.97,3.711V174.43c0,.738,0,1-.421,1a1.044,1.044,0,0,1-.9-.469l-16.8-17.38c-.243-.263-.454-.435-.63-.435-.21,0-.277.237-.277.536v11.365c0,6.419,4.469,4.142,4.469,5.716,0,.468-.871.436-1.328.436-1.708,0-2.9-.136-4.119-.136-1.12,0-2.06.136-3.005.136-.384,0-1.082.162-1.082-.4,0-1.338,3.353-.736,3.353-4.145Z" transform="translate(-2.19 -4.546)" fill="#262356"/>
      <path id="Trazado_3093" data-name="Trazado 3093" d="M108.4,165.159c-.626,0-1.117.032-1.117-.3a2.976,2.976,0,0,1,.387-1.237l2.689-5.919c.175-.365.312-.4.383-.4.176,0,.071,0,.277.263l2.865,6.053a3.018,3.018,0,0,1,.386,1.237c0,.334-.489.3-1.118.3Zm5.835,1.805c.907,0,1.084.334,2.238,2.938a5.629,5.629,0,0,1,.628,2.241c0,2.036-2.483,1.671-2.483,2.641,0,.468.453.4,1.084.4,1.015,0,2.308-.133,3.843-.133,2.3,0,3.247.133,4.5.133.946,0,1.261.068,1.261-.5,0-1.1-1.888.2-3.007-2.172l-9.43-20.459c-.452-1-.523-1.069-.838-1.069-.455,0-.626.636-.874,1.172L101.7,172.377c-.87,1.869-2.655,1.671-2.655,2.439,0,.436.561.368,1.049.368,1.016,0,2.025-.133,3.076-.133,1.116,0,2.165.133,3.284.133.73,0,1.813.235,1.813-.47,0-.9-3.77-.364-3.77-2.77a9.144,9.144,0,0,1,.733-2.64c.8-2.206,1.541-2.34,2.13-2.34Z" transform="translate(-2.971 -4.529)" fill="#262356"/>
      <path id="Trazado_3094" data-name="Trazado 3094" d="M125.168,168.34c-.1-.468-.455-1.44.419-1.44.559,0,.633.3.771.74,1.116,3.21,3.281,6.246,7.158,6.246,2.726,0,4.823-1.6,4.823-4.277,0-2.841-2.2-3.277-7.824-5.648-3-1.267-5.065-2.574-5.065-6.085a6.5,6.5,0,0,1,6.88-6.648c2.862,0,4.329,1.3,5.382,1.3.449,0,1.328-.533,1.777-.533.524,0,.419.5.488,1.271l.39,4.478c.067.734-.036,1.138-.805,1.138-.8,0-1.324-6.218-7.336-6.218-2.3,0-3.875,1.269-3.875,3.509s1.919,2.675,6.6,4.644c3.735,1.576,6.045,3.012,6.045,7.254,0,4.379-3.217,7.354-7.795,7.354-2.129,0-3.91-.8-5.934-1.239-.874-.2-.841-.467-1.014-1.267Z" transform="translate(-3.75 -4.537)" fill="#262356"/>
      <path id="Trazado_3095" data-name="Trazado 3095" d="M143.811,0,6.76,63.99l137.051,63.987L284.644,63.988Z" transform="translate(-0.203 0)" fill="#ffd327"/>
    </g>
  </g>
  <g id="Grupo_9746" data-name="Grupo 9746" transform="translate(15.898 4.372)">
    <g id="Grupo_9745" data-name="Grupo 9745" clip-path="url(#clip-path-2)">
      <rect id="Rect치ngulo_761" data-name="Rect치ngulo 761" width="258.908" height="119.068" transform="translate(0)" fill="url(#linear-gradient)"/>
    </g>
  </g>
  <g id="Grupo_9748" data-name="Grupo 9748">
    <g id="Grupo_9747" data-name="Grupo 9747" clip-path="url(#clip-path)">
      <path id="Trazado_3097" data-name="Trazado 3097" d="M72.078,90.434H218.072L223,88.195H67.283ZM52.93,81.492H237.75l4.93-2.24H48.132ZM271.991,62.949H19.607l-3.2,1.492,1.6.747H273.637l1.639-.747ZM41.664,76.233H249.325l4.931-2.239H36.869Zm39.427,18.41H208.81l4.927-2.239H76.3Zm62.992,29.41,61-27.719H84.716ZM63.065,86.226H227.334l4.926-2.24H58.27Zm144.1-52.732H82.693L77.9,35.731H212.089ZM189.8,25.6H99.591L94.8,27.841h99.928ZM166.645,15.084H122.122l-4.795,2.24h54.247ZM243.05,49.8H47.771l-4.8,2.237h205Zm-18.523-8.417H65.795L61,43.622H229.453Zm32.415,14.728H34.252l-4.8,2.24H261.871ZM29.272,70.447H262.062l4.926-2.239H24.476Z" transform="translate(-0.492 -0.453)" fill="#24346c"/>
      <path id="Trazado_3098" data-name="Trazado 3098" d="M113.617,33.04c-2.446,1.273-3.232,3.744-3.232,6.181a8.032,8.032,0,0,0,.844,3.517,11.138,11.138,0,0,0,2.453,3.251q1.6,1.5,10.358,6.7a122.167,122.167,0,0,1,11.506,7.237,27.631,27.631,0,0,1,4.953,5.215,17.672,17.672,0,0,1,3.6,10.7A16.552,16.552,0,0,1,137.758,89.5c-4.232,3.37-8.431,4.53-15.363,5.054-2.495.188-21.935-.429-21.935-.429V78.106h1.975c1.014,5.017,1.416,6.535,4.608,9.417s8.829,3.378,13.49,3.378a14.748,14.748,0,0,0,8.937-2.578,7.821,7.821,0,0,0,3.522-6.553,9.708,9.708,0,0,0-2.255-6.1q-2.261-2.878-12.079-8.44Q109.627,62.09,106.7,59.3a19.085,19.085,0,0,1-4.414-6.267,18.379,18.379,0,0,1-1.49-7.341,17.284,17.284,0,0,1,5.94-13.553,14.8,14.8,0,0,1,6.957-2.651c3.589-.172,24.609.342,26.589.342h-2.338l.362,3.082s-20.994-1.787-24.691.132" transform="translate(-3.014 -0.883)" fill="#fff"/>
      <path id="Trazado_3099" data-name="Trazado 3099" d="M158.2,36.181c-.158,8.7-.233,19.691-.233,22.611q0,6.913.114,14.659.161,9.5.239,10.784a12.537,12.537,0,0,0,.429,3.363,1.721,1.721,0,0,0,.508.672,2.7,2.7,0,0,0,1.127.483,33.434,33.434,0,0,0,4.525.275v4.054c-4.445-.214-6.418-.324-10.963-.324q-6.08,0-11.267.324V89.029a25.364,25.364,0,0,0,5.261-.509,1.183,1.183,0,0,0,.687-.46,3.357,3.357,0,0,0,.33-1.289,49.677,49.677,0,0,0,.388-5.438l.314-13.458v-17.1l-.193-14.913Z" transform="translate(-4.28 -1.076)" fill="#fff"/>
      <path id="Trazado_3100" data-name="Trazado 3100" d="M138.044,32.73v-3.1q1.112,0,7.729.214,3.239.106,9.182.108,5.074,0,8.7-.207,5.986-.255,9.906-.253a45.92,45.92,0,0,1,11.355,1.038c2.513.691,4.655.747,6.429,2.93A12.245,12.245,0,0,1,194,41.439a15.923,15.923,0,0,1-3.623,10.146q-3.621,4.563-11.163,7.239c.8,1.371,1.726,2.772,2.755,4.2s1.636,2.3,1.811,2.6.364.6.555.869l7.493,10.647q3,4.25,3.234,4.572,3.633,4.572,4.45,5.393a5.049,5.049,0,0,0,1.593,1.144,9.834,9.834,0,0,0,3.042.364v4.054q-7.438-.185-10.775-.182-3.865,0-7.68.182a11.034,11.034,0,0,0-1.159-2.625L174.187,73.792q-4.442-7-7.533-11a14.331,14.331,0,0,0-3-3.041l.526-1.518q5.807.182,8.75-1.131a11.211,11.211,0,0,0,4.978-4.705,14.481,14.481,0,0,0,2.028-7.589,11.4,11.4,0,0,0-2.125-7.057,11.15,11.15,0,0,0-5.269-3.924,25.693,25.693,0,0,0-7.25-.691Z" transform="translate(-4.141 -0.885)" fill="#fff"/>
      <path id="Trazado_3101" data-name="Trazado 3101" d="M135.294,109.1l1.479-7a1.537,1.537,0,0,0,.038-.322c0-.412-.186-.617-.55-.617a2.482,2.482,0,0,0-1.043.342l.076-.4,3.457-1.5h.353l-2.071,9.924a3.784,3.784,0,0,0-.1.751.819.819,0,0,0,.314.738,2.222,2.222,0,0,0,1.162.212l-.076.34h-5.021l.078-.34a1.7,1.7,0,0,0,1.253-.368,4.175,4.175,0,0,0,.647-1.753" transform="translate(-3.999 -2.988)" fill="#fff"/>
      <path id="Trazado_3102" data-name="Trazado 3102" d="M142.143,111.862l.059-.36q3.627-.547,5.6-5.4l-.049-.038a3.4,3.4,0,0,1-2.368,1.034,2.159,2.159,0,0,1-1.71-.825,3.014,3.014,0,0,1-.7-2.021,4.8,4.8,0,0,1,1.238-3.31,3.8,3.8,0,0,1,2.93-1.395,2.889,2.889,0,0,1,2.348,1.051,4.286,4.286,0,0,1,.878,2.841,8.215,8.215,0,0,1-2.461,5.7,8,8,0,0,1-5.766,2.72m4.665-11.632a1.744,1.744,0,0,0-1.554.9,4.454,4.454,0,0,0-.561,2.392q0,2.581,1.679,2.582a1.778,1.778,0,0,0,1.571-.979,4.352,4.352,0,0,0,.582-2.269,3.429,3.429,0,0,0-.475-1.9,1.428,1.428,0,0,0-1.243-.719" transform="translate(-4.264 -2.986)" fill="#fff"/>
      <path id="Trazado_3103" data-name="Trazado 3103" d="M154.22,111.862a2.539,2.539,0,0,1-2.19-1.24,5.609,5.609,0,0,1-.84-3.2,9.417,9.417,0,0,1,1.73-5.277q1.724-2.593,3.772-2.595a2.55,2.55,0,0,1,2.17,1.213,5.4,5.4,0,0,1,.852,3.158,9.336,9.336,0,0,1-1.741,5.453q-1.742,2.5-3.752,2.492m1.909-11.632c-.82,0-1.528.747-2.117,2.243a13.255,13.255,0,0,0-.883,4.885q0,3.822,1.584,3.823,1.339,0,2.2-2.36a14.559,14.559,0,0,0,.86-5.03q0-3.56-1.643-3.56" transform="translate(-4.536 -2.986)" fill="#fff"/>
      <path id="Trazado_3104" data-name="Trazado 3104" d="M163.438,105.359a3.45,3.45,0,0,1,2.4-1.035,2.17,2.17,0,0,1,1.708.824,2.99,2.99,0,0,1,.7,2.009,4.787,4.787,0,0,1-1.25,3.31,3.822,3.822,0,0,1-2.935,1.4,2.9,2.9,0,0,1-2.353-1.049,4.3,4.3,0,0,1-.876-2.837,8.27,8.27,0,0,1,2.355-5.549,8.148,8.148,0,0,1,5.871-2.832l-.061.341q-3.643.674-5.6,5.384Zm1.427-.037a1.786,1.786,0,0,0-1.6.941,4.321,4.321,0,0,0-.586,2.3,3.337,3.337,0,0,0,.486,1.9,1.472,1.472,0,0,0,1.266.717,1.731,1.731,0,0,0,1.5-.892,4.354,4.354,0,0,0,.573-2.388,3.514,3.514,0,0,0-.435-1.9,1.357,1.357,0,0,0-1.209-.676" transform="translate(-4.825 -2.988)" fill="#fff"/>
    </g>
  </g>
</svg>
