<svg xmlns="http://www.w3.org/2000/svg" width="208.404" height="55.972" viewBox="0 0 208.404 55.972">
  <g id="Grupo_837" data-name="Grupo 837" transform="translate(6402.286 -4119.463)">
    <g id="Grupo_83" data-name="Grupo 83" transform="translate(-6320.581 4120.24)">
      <g id="Grupo_82" data-name="Grupo 82" transform="translate(0 0)">
        <path id="Trazado_11" data-name="Trazado 11" d="M-5773.7,4144.646h-2.4l-.267-.267-1.334-3.468-.532-.267h-6.669l-.532.267-1.334,3.468-.267.267h-2.4l-.266-.267v-2.667l6.134-15.469.267-.268h3.467l.268.268,6.134,15.469v2.667Zm-7.734-13.869h-.268l-2.4,6.4.268.267h4.534l.267-.267Z" transform="translate(5806.257 -4125.709)" fill="#fff"/>
        <path id="Trazado_12" data-name="Trazado 12" d="M-5662.583,4137.179h-5.066l-.269.267v6.935l-.266.267h-3.2l-.267-.267v-18.136l.267-.268h8.8c3.733,0,6.4,1.867,6.4,5.6S-5658.85,4137.179-5662.583,4137.179Zm0-8h-5.066l-.269.266v4.268l.269.267h5.066c1.6,0,2.668-.534,2.668-2.4S-5660.982,4129.179-5662.583,4129.179Z" transform="translate(5707.14 -4125.709)" fill="#fff"/>
        <path id="Trazado_13" data-name="Trazado 13" d="M-5556.171,4143.516c-5.6,0-9.068-4-9.068-9.6s3.467-9.6,9.068-9.6,9.065,4,9.065,9.6S-5550.573,4143.516-5556.171,4143.516Zm0-16c-3.469,0-5.335,2.667-5.335,6.4s1.866,6.4,5.335,6.4,5.333-2.667,5.333-6.4S-5552.706,4127.515-5556.171,4127.515Z" transform="translate(5617.797 -4124.314)" fill="#fff"/>
        <path id="Trazado_14" data-name="Trazado 14" d="M-5294.722,4144.646h-12.534l-.267-.267v-18.136l.267-.268h12.534l.268.268v2.666l-.268.269h-8.8l-.267.266v3.733l.267.267h8.269l.266.268v2.666l-.266.267h-8.269l-.267.268v4.266l.267.269h8.8l.268.267v2.667Z" transform="translate(5401.418 -4125.709)" fill="#fff"/>
        <path id="Trazado_15" data-name="Trazado 15" d="M-5201.69,4143.516c-5.335,0-7.735-2.667-7.735-6.133l.267-.267h3.2l.269.267c0,1.867,1.065,2.934,4.267,2.934,2.4,0,3.733-.8,3.733-2.4,0-1.866-1.067-2.4-4.8-2.934s-6.668-1.867-6.668-5.6c0-2.667,2.134-5.067,7.2-5.067s7.2,2.4,7.2,5.6l-.267.267h-3.2l-.266-.267c0-1.6-.8-2.4-3.734-2.4-2.4,0-3.2.8-3.2,1.866,0,1.6,1.065,2.134,4.8,2.668s6.667,2.133,6.667,5.866C-5193.957,4140.849-5196.091,4143.516-5201.69,4143.516Z" transform="translate(5319.057 -4124.314)" fill="#fff"/>
        <path id="Trazado_16" data-name="Trazado 16" d="M-5873.745,4282.418h-5.065l-.268.267v6.934l-.267.267h-3.2l-.268-.267v-18.135l.268-.267h8.8c3.734,0,6.4,1.867,6.4,5.6S-5870.011,4282.418-5873.745,4282.418Zm0-8h-5.065l-.268.268v4.266l.268.267h5.065c1.6,0,2.668-.533,2.668-2.4S-5872.144,4274.417-5873.745,4274.417Z" transform="translate(5884.432 -4247.653)" fill="#fff"/>
        <path id="Trazado_17" data-name="Trazado 17" d="M-5758.281,4282.152v.266l3.465,4.534v2.667l-.266.267h-1.6l-.532-.267-5.335-6.934-.533-.267h-2.666l-.268.267v6.934l-.267.267h-3.2l-.266-.267v-18.135l.266-.267h8.8c3.733,0,6.4,1.867,6.4,5.6A5.283,5.283,0,0,1-5758.281,4282.152Zm-2.4-7.735h-5.067l-.268.268v4.266l.268.267h5.067c1.6,0,2.665-.533,2.665-2.4S-5759.082,4274.417-5760.681,4274.417Z" transform="translate(5789.504 -4247.653)" fill="#fff"/>
        <path id="Trazado_18" data-name="Trazado 18" d="M-5528.878,4289.886h-3.2l-.267-.267v-10.4h-.268l-4.266,10.4-.268.267h-2.933l-.268-.267-4.266-10.4h-.269v10.4l-.267.267h-3.2l-.267-.267v-18.135l.267-.267h4l.267.267,5.334,13.067h.267l5.334-13.067.268-.267h4l.267.267v18.135Z" transform="translate(5603.838 -4247.653)" fill="#fff"/>
        <path id="Trazado_19" data-name="Trazado 19" d="M-5393.843,4289.886h-3.2l-.267-.267v-18.135l.267-.267h3.2l.267.267v18.135Z" transform="translate(5476.805 -4247.653)" fill="#fff"/>
        <path id="Trazado_20" data-name="Trazado 20" d="M-5332.5,4282.685c0,4.8-2.667,7.467-7.468,7.467s-7.467-2.667-7.467-7.467v-11.2l.265-.267h3.2l.267.267v11.2c0,2.667,1.066,4.267,3.733,4.267s3.735-1.6,3.735-4.267v-11.2l.267-.267h3.2l.267.267Z" transform="translate(5434.925 -4247.653)" fill="#fff"/>
        <g id="Grupo_78" data-name="Grupo 78" transform="translate(0 0.247)">
          <path id="Trazado_21" data-name="Trazado 21" d="M-5856.328,4221.518v3.058l.267.267h3.2l.265-.267v-3.058Z" transform="translate(5862.195 -4206.173)" fill="#d99f27"/>
          <path id="Trazado_22" data-name="Trazado 22" d="M-5877.706,4125.857h-14.936l-.267.266v2.667l.267.267h5.334l.267.268v9.859h3.733v-9.859l.268-.268h5.334l.267-.267v-2.667Z" transform="translate(5892.908 -4125.857)" fill="#fff"/>
        </g>
        <g id="Grupo_79" data-name="Grupo 79" transform="translate(73.894 0.267)">
          <path id="Trazado_23" data-name="Trazado 23" d="M-5353.67,4128.911v-2.667l-.267-.268h-3.2l-.268.268v2.667Z" transform="translate(5369.406 -4125.977)" fill="#d99f27"/>
          <path id="Trazado_24" data-name="Trazado 24" d="M-5420.223,4130.929v7.583h-.268l-7.2-12.268-.532-.268h-3.734l-.268.268v18.135l.268.267h3.2l.266-.267V4132.11h.269l7.2,12.269.533.267h3.734l.267-.267v-13.45Z" transform="translate(5432.225 -4125.977)" fill="#fff"/>
        </g>
        <g id="Grupo_80" data-name="Grupo 80" transform="translate(38.423 23.563)">
          <path id="Trazado_25" data-name="Trazado 25" d="M-5649.361,4286.685l-.267-.266v-4.267l.267-.268h8.268l.267-.267v-2.667l-.267-.266h-8.268l-.267-.267v-3.733l.267-.268h4.283v-3.2h-8.019l-.265.267v18.135l.265.267h12.536l.268-.267v-2.667l-.268-.267Z" transform="translate(5653.361 -4271.217)" fill="#fff"/>
          <path id="Trazado_26" data-name="Trazado 26" d="M-5586.642,4271.217h-2.5v3.2h2.5l.267-.266v-2.667Z" transform="translate(5599.443 -4271.217)" fill="#d99f27"/>
        </g>
        <g id="Grupo_81" data-name="Grupo 81" transform="translate(106.697 23.563)">
          <path id="Trazado_27" data-name="Trazado 27" d="M-5211.45,4279.218v6.1h3.733v-13.836l-.268-.267h-4l-.267.267-5.334,13.067h-.266l-5.333-13.067-.268-.267h-4l-.267.267v18.135l.267.267h3.2l.266-.267v-10.4h.268l4.266,10.4.268.267h2.934l.267-.267,4.268-10.4Z" transform="translate(5227.719 -4271.217)" fill="#fff"/>
          <path id="Trazado_28" data-name="Trazado 28" d="M-5126.295,4371.721V4374l.267.266h3.2l.269-.266v-2.282Z" transform="translate(5142.563 -4355.6)" fill="#d99f27"/>
        </g>
      </g>
    </g>
    <g id="Grupo_85" data-name="Grupo 85" transform="translate(-6402.286 4119.463)">
      <path id="Trazado_29" data-name="Trazado 29" d="M-6035.541,4198.782v-28.327a2.878,2.878,0,0,1,.2-1.061l-1.547,1.477a2.881,2.881,0,0,0-.831,2.023v28.328a3.856,3.856,0,0,1-.161,1.1A3.849,3.849,0,0,0-6035.541,4198.782Z" transform="translate(6096.328 -4161.386)" fill="#a2782b"/>
      <path id="Trazado_30" data-name="Trazado 30" d="M-6341.5,4195.618h-13.426a10.684,10.684,0,0,1-10.684-10.684h0v-9.154a1.143,1.143,0,0,0-1.145-1.144h-28.569a4.789,4.789,0,0,1-4.789-4.789v-22a4.328,4.328,0,0,1,.248-1.442,4.318,4.318,0,0,0-2.421,3.881v22a4.788,4.788,0,0,0,4.788,4.79h28.57a1.144,1.144,0,0,1,1.144,1.144v9.153h0a10.683,10.683,0,0,0,10.683,10.683h13.428a10.669,10.669,0,0,0,8.961-4.873A10.633,10.633,0,0,1-6341.5,4195.618Z" transform="translate(6402.286 -4142.084)" fill="#a2782b"/>
      <path id="Trazado_31" data-name="Trazado 31" d="M-6289.682,4156.844h-21.062a3.531,3.531,0,0,0-3.425,2.666,3.529,3.529,0,0,1,1.25-.228h21.063a2.945,2.945,0,0,0,2.082-.863l7.571-7.283a1.32,1.32,0,0,0,.374-.707l-5.771,5.551A2.945,2.945,0,0,1-6289.682,4156.844Z" transform="translate(6328.302 -4145.462)" fill="#a2782b"/>
      <g id="Grupo_84" data-name="Grupo 84" transform="translate(3.296 0)">
        <path id="Trazado_32" data-name="Trazado 32" d="M-6347.231,4160.872v-9.154a1.146,1.146,0,0,0-1.145-1.145h-28.571a4.787,4.787,0,0,1-4.787-4.788v-22a4.322,4.322,0,0,1,4.322-4.321h39.232a1.331,1.331,0,0,1,.942,2.272l-7.574,7.284a2.942,2.942,0,0,1-2.081.864h-21.062a3.529,3.529,0,0,0-3.53,3.528v3.184a3.584,3.584,0,0,0,3.585,3.584h28.031a3.031,3.031,0,0,1,3.031,3.031v13.442a4.4,4.4,0,0,0,4.412,4.4l5.469-.019a3.848,3.848,0,0,0,3.833-3.849v-28.327a2.879,2.879,0,0,1,.833-2.024l7.215-6.893a1.541,1.541,0,0,1,2.636,1.084v39.849h0a10.682,10.682,0,0,1-10.683,10.683h-13.426a10.682,10.682,0,0,1-10.683-10.683Z" transform="translate(6381.734 -4119.463)" fill="#d99f27"/>
      </g>
    </g>
  </g>
</svg>